<svg width="74" height="84" viewBox="0 0 74 84" fill="none" xmlns="http://www.w3.org/2000/svg">
<path d="M45.5688 6.03748C45.5688 6.12643 44.9698 7.51628 44.8907 7.61635C44.8455 7.67194 44.7664 7.84984 44.7212 8.0055C44.642 8.239 44.0091 9.70667 43.478 10.8519C43.4244 10.964 43.2993 11.2479 43.1474 11.5926C43.0431 11.8294 42.9262 12.0949 42.8111 12.3529C41.9635 14.3321 41.1498 16.1444 40.9803 16.478C40.8898 16.6448 40.8559 16.7893 40.9011 16.7893C40.9577 16.7893 42.0652 16.3335 43.3649 15.7775C43.5966 15.6793 43.828 15.581 44.0536 15.4852C45.1043 15.039 46.0296 14.646 46.2808 14.5545C46.315 14.5402 46.3498 14.5258 46.3845 14.5114C46.6481 14.402 46.9156 14.2909 47.0154 14.232C47.1171 14.1764 47.9987 13.7984 48.9593 13.387C49.92 12.9867 50.9823 12.542 51.3101 12.3974L51.8978 12.1306V21.0812C51.8978 28.1861 51.8639 30.0206 51.7509 30.0206C51.6491 30.0206 47.2754 28.1861 46.1904 27.6857C46.0661 27.6301 45.4784 27.3744 44.8907 27.1187C44.5452 26.9714 44.276 26.8573 44.0461 26.7598C43.3734 26.4748 43.037 26.3322 42.1104 25.9178C41.5454 25.6621 41.0481 25.462 40.9916 25.462C40.8785 25.462 40.9577 25.6843 41.534 26.963C41.5894 27.0877 41.6678 27.2638 41.7636 27.4792C42.1377 28.3197 42.7779 29.7582 43.3536 31.0769C43.7247 31.9081 44.1102 32.7819 44.4329 33.5134C44.7491 34.23 45.005 34.8101 45.128 35.0797C45.3654 35.6356 45.5688 36.1137 45.5688 36.1693C45.5688 36.2135 41.5267 36.2468 36.5613 36.2472C36.5312 36.2472 36.501 36.2472 36.4709 36.2472C31.4642 36.2472 27.3729 36.236 27.3729 36.2138C27.3729 36.1916 27.4633 35.9803 27.5877 35.7357C27.9832 34.9129 28.6161 33.4897 28.6161 33.4341C28.6161 33.3896 28.8421 32.8782 29.1247 32.2889C29.4072 31.6996 29.6333 31.1881 29.6333 31.1548C29.6333 31.1214 29.735 30.8879 29.848 30.6433C29.9723 30.3876 30.2775 29.6871 30.5374 29.0756L30.6242 28.8749L30.6243 28.8747C31.0395 27.9149 31.1759 27.5996 31.7693 26.307C31.9614 25.8845 32.1084 25.5176 32.0858 25.5064C32.0519 25.4731 27.7007 27.2966 26.7513 27.7413C26.5705 27.8303 25.802 28.1638 25.0561 28.4751C24.3101 28.7865 23.18 29.2646 22.5471 29.5314C21.9142 29.7983 21.3378 30.0206 21.2813 30.0206C21.1908 30.0206 21.1569 27.341 21.1569 21.1256C21.1569 16.2334 21.2021 12.2306 21.2587 12.2306C21.3378 12.2306 23.3721 13.0757 24.6605 13.6427C24.943 13.7761 25.9602 14.2098 26.9208 14.61C27.8815 15.0214 28.7517 15.3995 28.8535 15.4551C28.9552 15.4995 29.475 15.7219 30.0175 15.9443C30.5221 16.1555 31.149 16.4269 31.4527 16.5585C31.4529 16.5585 31.4531 16.5586 31.4532 16.5587L31.4981 16.5781C31.7806 16.7115 32.0406 16.7893 32.0745 16.7671C32.1197 16.7226 31.6676 15.6663 31.159 14.6212C31.0686 14.4322 30.7748 13.765 30.4922 13.1201C29.7576 11.3856 27.8363 7.01594 27.5877 6.51559C27.4633 6.27098 27.3729 6.05972 27.3729 6.03748C27.3729 6.01524 31.4642 6.00413 36.4709 6.00413C36.501 6.00413 36.5312 6.00413 36.5613 6.00413C41.5267 6.00426 45.5688 6.01538 45.5688 6.03748Z" fill="#E7CE32"/>
<path d="M62.9961 32.6669C64.2506 33.4341 64.7705 34.6461 64.2054 35.5467C63.9568 35.947 63.2674 36.3583 62.8492 36.3583C62.5328 36.3583 61.8773 35.8802 61.7868 35.58C61.7529 35.4577 61.6399 35.3577 61.5608 35.3577C61.3235 35.3577 59.8203 36.8698 58.7354 38.1929C58.4415 38.5599 58.0233 39.0268 57.8199 39.2381C57.5487 39.5161 57.4696 39.6717 57.5374 39.794C57.6956 40.0831 59.7299 42.1957 60.069 42.4292C60.4306 42.6627 60.7584 43.1964 60.6567 43.3632C60.6228 43.4299 60.4532 43.4743 60.3063 43.4743C60.0351 43.4743 59.8768 43.352 59.1309 42.5293C58.8371 42.1957 57.9555 41.5174 57.1757 41.006L56.7236 40.6947L56.4298 41.006C56.4058 41.0313 56.3619 41.0777 56.3007 41.1424C55.9581 41.5045 55.0753 42.4376 54.1355 43.4188C48.9706 48.8781 42.4495 54.7599 37.488 58.4402C37.1984 58.6546 36.8967 58.8718 36.5854 59.0906C32.9731 61.6289 28.0618 64.3704 25.5646 65.1893C22.9991 66.0343 18.9644 66.5013 17.1448 66.1677L16.6927 66.0899L18.5575 65.167C21.1004 63.9106 23.4399 62.6208 26.5253 60.7974C30.6022 58.3812 33.76 56.2975 36.5613 54.1534C37.6272 53.3375 38.6416 52.5128 39.6354 51.6578C43.1389 48.6446 43.3988 48.4 46.5859 45.2645C49.5357 42.3625 51.0049 40.817 52.4629 39.138C52.9036 38.6154 53.3783 38.1151 53.4913 38.0039C53.7061 37.826 53.6948 37.8038 53.1184 37.17C52.5533 36.5585 51.8187 35.8358 51.0275 35.1242C50.3946 34.5571 50.6207 33.9456 51.2988 34.4126C51.4231 34.5015 51.8074 34.8351 52.1351 35.1575C52.4742 35.48 53.1297 36.0359 53.6157 36.3917L54.4746 37.0366L55.0284 36.5251C56.2829 35.3243 60.0803 32.6224 60.7697 32.4334C61.2896 32.2889 62.6006 32.4334 62.9961 32.6669Z" fill="#E7CE32"/>
<path d="M14.455 33.423C15.0653 33.9678 15.7999 34.6349 16.0824 34.8907L16.6136 35.3577L16.7379 36.4473C16.8057 37.0366 16.9301 37.9928 16.9979 38.5487C17.0657 39.1158 17.0996 39.605 17.0657 39.6384C17.0318 39.6828 16.3424 39.227 15.54 38.6488L14.0707 37.5814L13.7091 35.2798C13.5056 34.0012 13.2909 32.8226 13.2344 32.6558C13.1779 32.4668 13.1779 32.3556 13.2457 32.3778C13.3022 32.4001 13.8447 32.8671 14.455 33.423Z" fill="#E7CE32"/>
<path d="M18.8627 37.4257L19.2243 37.7482L19.3486 39.5605C19.4165 40.5612 19.4617 41.3951 19.4391 41.4174C19.4165 41.4396 18.9531 41.1172 18.388 40.7058L17.3708 39.9497L17.1448 37.8705C17.0205 36.7253 16.9301 35.769 16.964 35.7468C16.9866 35.7135 17.3482 36.0137 17.7551 36.4028C18.162 36.792 18.6592 37.2478 18.8627 37.4257Z" fill="#E7CE32"/>
<path d="M14.3759 37.9372C18.9305 41.2395 20.8179 42.5737 20.8179 42.4959C20.8179 42.4514 20.5692 42.2513 20.2641 42.0511C19.6425 41.6397 19.6538 41.6842 19.5069 39.2492L19.4278 37.9706L20.0946 38.5487C21.2021 39.4827 21.1343 39.3382 21.1795 41.1172C21.2134 42.4848 21.1908 42.696 21.0439 42.6404C20.8066 42.5626 21.123 42.8072 22.9652 44.1415C23.8581 44.7864 25.429 45.9205 26.4575 46.6654C28.2771 47.9886 29.3394 48.7558 31.1025 50.0233C31.5659 50.3569 32.4361 50.9795 33.0238 51.4131C33.6115 51.8357 34.3574 52.3694 34.6626 52.5917C34.979 52.8141 35.5215 53.2144 35.8832 53.4812L36.55 53.9705L36.1657 54.2818C35.9623 54.4486 35.7701 54.582 35.7362 54.5931C35.6797 54.5931 34.8095 53.9593 31.4981 51.5577C29.1473 49.8565 27.8363 48.9114 26.5027 47.9552C24.2649 46.3541 16.8397 40.9837 14.7714 39.4716C13.7204 38.6933 12.7032 37.9706 12.5224 37.8594L12.1946 37.6481L12.4433 37.4925C12.5676 37.4035 12.6806 37.2478 12.6806 37.1367C12.6806 36.892 12.8049 36.7809 12.9518 36.9032C13.0197 36.9476 13.6639 37.4146 14.3759 37.9372Z" fill="#E7CE32"/>
<path d="M22.0837 40.35L22.5131 40.728V42.1512V43.5744L21.9481 43.2297L21.383 42.885V42.1401C21.383 41.7287 21.3491 40.9949 21.3039 40.5168C21.2247 39.5272 21.1795 39.5383 22.0837 40.35Z" fill="#E7CE32"/>
<path d="M19.586 43.0852C19.9816 43.3632 20.298 43.63 20.2867 43.6634C20.2754 43.7078 19.5973 43.9302 18.7836 44.1526L17.303 44.5529L16.3198 44.0192C15.7095 43.6856 15.4156 43.4632 15.5173 43.4188C15.653 43.3743 18.5801 42.6293 18.7949 42.596C18.8288 42.5848 19.1791 42.8072 19.586 43.0852Z" fill="#E7CE32"/>
<path d="M21.123 44.2082C21.4282 44.4306 21.6881 44.6307 21.7107 44.6418C21.7559 44.6974 19.213 45.4757 19.0209 45.4757C18.8514 45.4757 17.6534 44.7864 17.6534 44.6863C17.6534 44.6307 20.1398 43.8746 20.5014 43.819C20.5466 43.819 20.8292 43.9858 21.123 44.2082Z" fill="#E7CE32"/>
<path d="M17.6082 41.6509C18.1281 42.0067 18.5349 42.3513 18.5123 42.4069C18.4897 42.507 17.0544 42.8851 15.7321 43.1297L14.9975 43.2742L13.8221 42.596C13.1779 42.229 12.6015 41.8844 12.545 41.8288C12.4546 41.7398 16.3198 40.9059 16.5684 40.9615C16.6249 40.9726 17.0883 41.284 17.6082 41.6509Z" fill="#E7CE32"/>
<path d="M14.8618 39.6606L16.3424 40.7503L15.6756 40.8837C13.6752 41.2728 12.3981 41.4952 12.1833 41.5174C12.059 41.5174 11.0531 41.0282 9.96817 40.4167L8.00166 39.3048L8.83799 39.1714C10.3072 38.9268 12.6128 38.6154 12.9971 38.5932C13.3022 38.5821 13.6299 38.7711 14.8618 39.6606Z" fill="#E7CE32"/>
<path d="M48.5751 59.0628C48.7559 59.3297 49.1062 59.8189 49.3662 60.1525C49.6148 60.486 50.1573 61.2421 50.5529 61.8203L50.6797 62.0015C51.293 62.8775 51.6096 63.3296 52.542 64.6222C54.2146 66.9683 54.7458 67.7244 54.7119 67.7577C54.6893 67.78 53.9095 67.5576 52.9715 67.2574C52.5769 67.1343 52.0308 66.9649 51.4404 66.7817C50.6439 66.5346 49.7668 66.2625 49.0723 66.0454C48.7243 65.9366 48.3369 65.8158 47.9418 65.6926C46.9639 65.3878 45.9384 65.068 45.3428 64.878L43.817 64.3998L44.2691 64.2887C46.8233 63.6215 47.3658 63.4881 47.4223 63.4881C47.6257 63.4881 47.3997 63.2657 46.699 62.7654C46.2695 62.4541 45.9078 62.1761 45.9078 62.1316C45.9078 62.0204 46.5068 61.1643 46.5859 61.1532C46.6199 61.1532 46.9928 61.3978 47.4223 61.7091C47.8517 62.0093 48.2473 62.265 48.3038 62.265C48.4168 62.265 48.3716 60.7863 48.2134 59.2296C48.1795 58.8849 48.1682 58.5959 48.2021 58.5959C48.2247 58.5959 48.3942 58.8071 48.5751 59.0628Z" fill="#E7CE32"/>
<path d="M43.1389 58.7182C44.7551 59.8856 46.1452 60.8974 46.2356 60.9864C46.3712 61.1087 46.3486 61.1976 46.1339 61.5312C45.987 61.7758 45.84 61.8981 45.7609 61.8537C45.614 61.7647 40.8785 58.3624 39.9518 57.6841L39.3641 57.2505L39.7258 56.928C39.9292 56.7501 40.11 56.6056 40.1439 56.5945C40.1778 56.5945 41.5227 57.5507 43.1389 58.7182Z" fill="#E7CE32"/>
<path fill-rule="evenodd" clip-rule="evenodd" d="M36.5613 0C69.7998 0 73.1225 0.011116 73.1903 0.177902C73.3034 0.478104 73.2581 28.1638 73.1451 30.1874C73.0773 31.2215 72.9756 33.3563 72.9191 34.9129C72.8626 36.4695 72.7383 38.4931 72.6479 39.416C72.5574 40.3277 72.4444 41.5063 72.4105 42.0178C72.3766 42.5404 72.3201 42.9962 72.2862 43.0407C72.2636 43.0852 72.1393 43.8969 72.015 44.8308C71.8906 45.7648 71.7098 46.8767 71.6307 47.3103C71.5403 47.7328 71.3821 48.5111 71.2803 49.0337C71.0769 50.1011 70.5005 52.3471 70.2067 53.2589C70.1502 53.4256 70.0795 53.648 70.0089 53.8704C69.9383 54.0928 69.8676 54.3151 69.8111 54.4819C69.6303 55.0823 68.4323 57.9732 67.8785 59.1296C67.5734 59.7744 65.8442 62.7765 65.2565 63.6549C65.1774 63.7772 65.0418 64.0218 64.9513 64.2108C64.8722 64.3887 64.2506 65.2226 63.5951 66.0454C63.4272 66.2562 63.2475 66.4822 63.0667 66.7096C62.5416 67.3699 62.0078 68.0413 61.7303 68.3804C61.3687 68.8362 60.9279 69.3699 60.7471 69.559C59.1083 71.2824 58.4528 71.9273 57.8425 72.4165C57.5689 72.6395 56.987 73.1074 56.3661 73.6064C56.0895 73.8288 55.8052 74.0574 55.537 74.2733C54.1016 75.4297 51.3779 77.3532 49.92 78.2316C48.8237 78.8987 45.3428 80.8334 45.241 80.8334C45.2184 80.8334 44.9811 80.9223 44.7325 81.0446C44.1448 81.3115 43.1728 81.7451 42.5173 82.0342C41.7036 82.39 37.9514 83.7131 37.5671 83.7798C37.375 83.8132 37.0811 83.891 36.9116 83.9466L36.5854 59.0906C36.8967 58.8718 37.1984 58.6546 37.488 58.4402C42.4495 54.7599 48.9706 48.8781 54.1355 43.4188C55.0753 42.4376 55.9581 41.5045 56.3007 41.1424C56.3619 41.0777 56.4058 41.0313 56.4298 41.006L56.7236 40.6947L57.1757 41.006C57.9555 41.5174 58.8371 42.1957 59.1309 42.5293C59.8768 43.352 60.0351 43.4743 60.3063 43.4743C60.4532 43.4743 60.6228 43.4299 60.6567 43.3632C60.7584 43.1964 60.4306 42.6627 60.069 42.4292C59.7299 42.1957 57.6956 40.0831 57.5374 39.794C57.4696 39.6717 57.5487 39.5161 57.8199 39.2381C58.0233 39.0268 58.4415 38.5599 58.7354 38.1929C59.8203 36.8698 61.3235 35.3577 61.5608 35.3577C61.6399 35.3577 61.7529 35.4577 61.7868 35.58C61.8773 35.8802 62.5328 36.3583 62.8492 36.3583C63.2674 36.3583 63.9568 35.947 64.2054 35.5467C64.7705 34.6461 64.2506 33.4341 62.9961 32.6669C62.6006 32.4334 61.2896 32.2889 60.7697 32.4334C60.0803 32.6224 56.2829 35.3243 55.0284 36.5251L54.4746 37.0366L53.6157 36.3917C53.1297 36.0359 52.4742 35.48 52.1351 35.1575C51.8074 34.8351 51.4231 34.5015 51.2988 34.4126C50.6207 33.9456 50.3946 34.5571 51.0275 35.1242C51.8187 35.8358 52.5533 36.5585 53.1184 37.17C53.6948 37.8038 53.7061 37.826 53.4913 38.0039C53.3783 38.1151 52.9036 38.6154 52.4629 39.138C51.0049 40.817 49.5357 42.3625 46.5859 45.2645C43.3988 48.4 43.1389 48.6446 39.6354 51.6578C38.6416 52.5128 37.6272 53.3375 36.5613 54.1534V36.2472C41.5267 36.2468 45.5688 36.2135 45.5688 36.1693C45.5688 36.1137 45.3654 35.6356 45.128 35.0797C45.005 34.8101 44.7491 34.23 44.4329 33.5134C44.1102 32.7819 43.7247 31.9081 43.3536 31.0769C42.7779 29.7582 42.1377 28.3197 41.7636 27.4792C41.6678 27.2638 41.5894 27.0877 41.534 26.963C40.9577 25.6843 40.8785 25.462 40.9916 25.462C41.0481 25.462 41.5454 25.6621 42.1104 25.9178C43.037 26.3322 43.3734 26.4748 44.0461 26.7598C44.276 26.8573 44.5452 26.9714 44.8907 27.1187C45.4784 27.3744 46.0661 27.6301 46.1904 27.6857C47.2754 28.1861 51.6491 30.0206 51.7509 30.0206C51.8639 30.0206 51.8978 28.1861 51.8978 21.0812V12.1306L51.3101 12.3974C50.9823 12.542 49.92 12.9867 48.9593 13.387C47.9987 13.7984 47.1171 14.1764 47.0154 14.232C46.9156 14.2909 46.6481 14.402 46.3845 14.5114C46.3498 14.5258 46.315 14.5402 46.2808 14.5545C46.0296 14.646 45.1043 15.039 44.0536 15.4852C43.828 15.581 43.5966 15.6793 43.3649 15.7775C42.0652 16.3335 40.9577 16.7893 40.9011 16.7893C40.8559 16.7893 40.8898 16.6448 40.9803 16.478C41.1498 16.1444 41.9635 14.3321 42.8111 12.3529C42.9262 12.0949 43.0431 11.8294 43.1474 11.5926C43.2993 11.2479 43.4244 10.964 43.478 10.8519C44.0091 9.70667 44.642 8.239 44.7212 8.0055C44.7664 7.84984 44.8455 7.67194 44.8907 7.61635C44.9698 7.51628 45.5688 6.12643 45.5688 6.03748C45.5688 6.01538 41.5267 6.00426 36.5613 6.00413C36.5312 6.00413 36.501 6.00413 36.4709 6.00413H36.5613V0ZM2.29426 50.4792C2.21689 50.0877 2.11791 49.6006 2.06073 49.3817L3.37923 54.3707C2.72373 52.2582 2.40728 51.1129 2.29426 50.4792ZM18.275 74.7737L17.9207 74.4849C18.0284 74.5742 18.1517 74.6748 18.275 74.7737ZM32.3457 82.6569L35.9736 83.8799C35.0242 83.6019 33.7923 83.2128 33.4759 83.0794C33.3177 83.0127 32.8091 82.8236 32.3457 82.6569ZM46.2356 60.9864C46.1452 60.8974 44.7551 59.8856 43.1389 58.7182C41.5227 57.5507 40.1778 56.5945 40.1439 56.5945C40.11 56.6056 39.9292 56.7501 39.7258 56.928L39.3641 57.2505L39.9518 57.6841C40.8785 58.3624 45.614 61.7647 45.7609 61.8537C45.84 61.8981 45.987 61.7758 46.1339 61.5312C46.3486 61.1976 46.3712 61.1087 46.2356 60.9864ZM49.3662 60.1525C49.1062 59.8189 48.7559 59.3297 48.5751 59.0628C48.3942 58.8071 48.2247 58.5959 48.2021 58.5959C48.1682 58.5959 48.1795 58.8849 48.2134 59.2296C48.3716 60.7863 48.4168 62.265 48.3038 62.265C48.2473 62.265 47.8517 62.0093 47.4223 61.7091C46.9928 61.3978 46.6199 61.1532 46.5859 61.1532C46.5068 61.1643 45.9078 62.0204 45.9078 62.1316C45.9078 62.1761 46.2695 62.4541 46.699 62.7654C47.3997 63.2657 47.6257 63.4881 47.4223 63.4881C47.3658 63.4881 46.8233 63.6215 44.2691 64.2887L43.817 64.3998L45.3428 64.878C45.9384 65.068 46.9639 65.3878 47.9418 65.6926C48.3369 65.8158 48.7243 65.9366 49.0723 66.0454C49.7668 66.2625 50.6439 66.5346 51.4404 66.7817C52.0308 66.9649 52.5769 67.1343 52.9715 67.2574C53.9095 67.5576 54.6893 67.78 54.7119 67.7577C54.7458 67.7244 54.2146 66.9683 52.542 64.6222C51.6096 63.3296 51.293 62.8775 50.6797 62.0015L50.5529 61.8203C50.1573 61.2421 49.6148 60.486 49.3662 60.1525Z" fill="black"/>
<path fill-rule="evenodd" clip-rule="evenodd" d="M0.180828 33.1339C0.135621 32.3111 0.0791129 24.5169 0.0565093 15.8109L0.028254 7.90543L0.0141277 3.95271L0 0H18.2806H27.4209H36.5613V6.00413H36.4709C31.4642 6.00413 27.3729 6.01524 27.3729 6.03748C27.3729 6.05972 27.4633 6.27098 27.5877 6.51559C27.8363 7.01594 29.7576 11.3856 30.4922 13.1201C30.7748 13.765 31.0686 14.4322 31.159 14.6212C31.6676 15.6663 32.1197 16.7226 32.0745 16.7671C32.0406 16.7893 31.7806 16.7115 31.4981 16.5781L31.4532 16.5587L31.4527 16.5585C31.149 16.4269 30.5221 16.1555 30.0175 15.9443C29.475 15.7219 28.9552 15.4995 28.8535 15.4551C28.7517 15.3995 27.8815 15.0214 26.9208 14.61C25.9602 14.2098 24.943 13.7761 24.6605 13.6427C23.3721 13.0757 21.3378 12.2306 21.2587 12.2306C21.2021 12.2306 21.1569 16.2334 21.1569 21.1256C21.1569 27.341 21.1908 30.0206 21.2813 30.0206C21.3378 30.0206 21.9142 29.7983 22.5471 29.5314C23.18 29.2646 24.3101 28.7865 25.0561 28.4751C25.802 28.1638 26.5705 27.8303 26.7513 27.7413C27.7007 27.2966 32.0519 25.4731 32.0858 25.5064C32.1084 25.5176 31.9614 25.8845 31.7693 26.307C31.1759 27.5996 31.0395 27.9149 30.6243 28.8747L30.6242 28.8749L30.5374 29.0756C30.2775 29.6871 29.9723 30.3876 29.848 30.6433C29.735 30.8879 29.6333 31.1214 29.6333 31.1548C29.6333 31.1881 29.4072 31.6996 29.1247 32.2889C28.8421 32.8782 28.6161 33.3896 28.6161 33.4341C28.6161 33.4897 27.9832 34.9129 27.5877 35.7357C27.4633 35.9803 27.3729 36.1916 27.3729 36.2138C27.3729 36.236 31.4642 36.2472 36.4709 36.2472L36.5613 36.2472V54.1534C33.76 56.2975 30.6022 58.3812 26.5253 60.7974C23.4399 62.6208 21.1004 63.9106 18.5575 65.167L16.6927 66.0899L17.1448 66.1677C18.9644 66.5013 22.9991 66.0343 25.5646 65.1893C28.0618 64.3704 32.9731 61.6289 36.5854 59.0906L36.9116 83.9466C36.6969 84.0356 36.4482 84.0133 35.9736 83.8799L32.3457 82.6569C29.4072 81.6006 24.6492 79.1878 22.0159 77.4088C21.5186 77.0641 20.7727 76.5638 20.3771 76.2969C19.4617 75.6965 19.2582 75.5408 18.275 74.7737L17.9207 74.4849C17.762 74.3532 17.6373 74.2464 17.5969 74.2066C17.5404 74.1399 16.9527 73.6729 16.2972 73.1614C14.3985 71.6826 12.2059 69.4033 10.4202 67.0461C10.3931 67.0099 10.3604 66.9668 10.3232 66.9186C10.1439 66.6856 9.86323 66.3329 9.62912 66.0565C9.34657 65.7119 8.91711 65.1337 8.65716 64.7668C8.09208 63.944 5.6961 59.8634 5.33444 59.0962C4.79196 57.9287 3.56006 54.96 3.37923 54.3707L2.06073 49.3817L2.05692 49.3673C1.91 48.8113 1.50314 46.7655 1.43533 46.254C1.40142 46.0094 1.2545 44.9198 1.09627 43.8301C0.745918 41.4285 0.406864 37.4702 0.180828 33.1339ZM16.0824 34.8907C15.7999 34.6349 15.0653 33.9678 14.455 33.423C13.8447 32.8671 13.3022 32.4001 13.2457 32.3778C13.1779 32.3556 13.1779 32.4668 13.2344 32.6558C13.2909 32.8226 13.5056 34.0012 13.7091 35.2798L14.0707 37.5814L15.54 38.6488C16.3424 39.227 17.0318 39.6828 17.0657 39.6384C17.0996 39.605 17.0657 39.1158 16.9979 38.5487C16.9301 37.9928 16.8057 37.0366 16.7379 36.4473L16.6136 35.3577L16.0824 34.8907ZM19.2243 37.7482L18.8627 37.4257C18.6592 37.2478 18.162 36.792 17.7551 36.4028C17.3482 36.0137 16.9866 35.7135 16.964 35.7468C16.9301 35.769 17.0205 36.7253 17.1448 37.8705L17.3708 39.9497L18.388 40.7058C18.9531 41.1172 19.4165 41.4396 19.4391 41.4174C19.4617 41.3951 19.4165 40.5612 19.3486 39.5605L19.2243 37.7482ZM20.8179 42.4959C20.8179 42.5737 18.9305 41.2395 14.3759 37.9372C13.6639 37.4146 13.0197 36.9476 12.9518 36.9032C12.8049 36.7809 12.6806 36.892 12.6806 37.1367C12.6806 37.2478 12.5676 37.4035 12.4433 37.4925L12.1946 37.6481L12.5224 37.8594C12.7032 37.9706 13.7204 38.6933 14.7714 39.4716C16.8397 40.9837 24.2649 46.3541 26.5027 47.9552C27.8363 48.9114 29.1473 49.8565 31.4981 51.5577C34.8095 53.9593 35.6797 54.5931 35.7362 54.5931C35.7701 54.582 35.9623 54.4486 36.1657 54.2818L36.55 53.9705L35.8832 53.4812C35.5215 53.2144 34.979 52.8141 34.6626 52.5917C34.3574 52.3694 33.6115 51.8357 33.0238 51.4131C32.4361 50.9795 31.5659 50.3569 31.1025 50.0233C29.3394 48.7558 28.2771 47.9886 26.4575 46.6654C25.429 45.9205 23.8581 44.7864 22.9652 44.1415C21.123 42.8072 20.8066 42.5626 21.0439 42.6404C21.1908 42.696 21.2134 42.4848 21.1795 41.1172C21.1343 39.3382 21.2021 39.4827 20.0946 38.5487L19.4278 37.9706L19.5069 39.2492C19.6538 41.6842 19.6425 41.6397 20.2641 42.0511C20.5692 42.2513 20.8179 42.4514 20.8179 42.4959ZM16.3424 40.7503L14.8618 39.6606C13.6299 38.7711 13.3022 38.5821 12.9971 38.5932C12.6128 38.6154 10.3072 38.9268 8.83799 39.1714L8.00166 39.3048L9.96817 40.4167C11.0531 41.0282 12.059 41.5174 12.1833 41.5174C12.3981 41.4952 13.6752 41.2728 15.6756 40.8837L16.3424 40.7503ZM22.5131 40.728L22.0837 40.35C21.1795 39.5383 21.2247 39.5272 21.3039 40.5168C21.3491 40.9949 21.383 41.7287 21.383 42.1401V42.885L21.9481 43.2297L22.5131 43.5744V42.1512V40.728ZM18.5123 42.4069C18.5349 42.3513 18.1281 42.0067 17.6082 41.6509C17.0883 41.284 16.6249 40.9726 16.5684 40.9615C16.3198 40.9059 12.4546 41.7398 12.545 41.8288C12.6015 41.8844 13.1779 42.229 13.8221 42.596L14.9975 43.2742L15.7321 43.1297C17.0544 42.8851 18.4897 42.507 18.5123 42.4069ZM20.2867 43.6634C20.298 43.63 19.9816 43.3632 19.586 43.0852C19.1791 42.8072 18.8288 42.5848 18.7949 42.596C18.5801 42.6293 15.653 43.3743 15.5173 43.4188C15.4156 43.4632 15.7095 43.6856 16.3198 44.0192L17.303 44.5529L18.7836 44.1526C19.5973 43.9302 20.2754 43.7078 20.2867 43.6634ZM21.7107 44.6418C21.6881 44.6307 21.4282 44.4306 21.123 44.2082C20.8292 43.9858 20.5466 43.819 20.5014 43.819C20.1398 43.8746 17.6534 44.6307 17.6534 44.6863C17.6534 44.7864 18.8514 45.4757 19.0209 45.4757C19.213 45.4757 21.7559 44.6974 21.7107 44.6418Z" fill="#0956B9"/>
</svg>
