<svg xmlns="http://www.w3.org/2000/svg">
<symbol id="icon-close" viewBox="0 0 32 32">
<path stroke-linejoin="round" stroke-linecap="round" stroke-miterlimit="4" stroke-width="1.6" d="M24 8l-16 16"></path>
<path stroke-linejoin="round" stroke-linecap="round" stroke-miterlimit="4" stroke-width="1.6" d="M8 8l16 16"></path>
</symbol>
<symbol id="icon-facebook" viewBox="0 0 32 32">
<path d="M16 1.997c-7.721 0-14.003 6.282-14.003 14.003s6.281 14.003 14.003 14.003c7.721 0 14.003-6.282 14.003-14.003s-6.282-14.003-14.003-14.003zM19.958 10.837c0 0.066-0.026 0.13-0.073 0.177s-0.11 0.073-0.177 0.073l-1.592 0.001c-1.050 0-1.242 0.409-1.242 1.214v1.671h2.73c0.072 0 0.14 0.031 0.188 0.085s0.069 0.126 0.060 0.197l-0.389 3.008c-0.008 0.060-0.037 0.116-0.083 0.156s-0.104 0.062-0.165 0.062h-2.341v7.47c0 0.066-0.026 0.13-0.073 0.177s-0.11 0.073-0.177 0.073h-3.106c-0.066 0-0.13-0.026-0.177-0.073s-0.073-0.11-0.073-0.177v-7.47h-2.349c-0.066 0-0.13-0.026-0.177-0.073s-0.073-0.11-0.073-0.177v-3.008c0-0.066 0.026-0.13 0.073-0.177s0.11-0.073 0.177-0.073h2.349v-1.969c0-2.608 1.578-4.227 4.119-4.227 1.092 0 2.058 0.081 2.354 0.121 0.060 0.008 0.115 0.037 0.155 0.083s0.062 0.104 0.062 0.165v2.691z"></path>
</symbol>
<symbol id="icon-linkedin" viewBox="0 0 32 32">
<path d="M17.712 14.134h0.022v-0.035l-0.022 0.035zM17.712 14.134h0.022v-0.035l-0.022 0.035zM17.712 14.134h0.022v-0.035l-0.022 0.035zM17.712 14.134h0.022v-0.035l-0.022 0.035zM17.712 14.134h0.022v-0.035l-0.022 0.035zM17.712 14.134h0.022v-0.035l-0.022 0.035zM17.712 14.134h0.022v-0.035l-0.022 0.035zM17.712 14.134h0.022v-0.035l-0.022 0.035zM17.712 14.134h0.022v-0.035l-0.022 0.035zM17.712 14.134h0.022v-0.035l-0.022 0.035zM17.712 14.134h0.022v-0.035l-0.022 0.035zM17.712 14.134h0.022v-0.035l-0.022 0.035zM17.712 14.134h0.022v-0.035l-0.022 0.035zM17.712 14.134h0.022v-0.035l-0.022 0.035zM17.712 14.134h0.022v-0.035l-0.022 0.035zM17.712 14.134h0.022v-0.035l-0.022 0.035zM16.256 1.206c-2.89 0-5.716 0.857-8.119 2.463s-4.276 3.888-5.383 6.559c-1.106 2.67-1.396 5.609-0.832 8.444s1.956 5.439 4 7.483 4.648 3.436 7.483 4c2.835 0.564 5.773 0.274 8.444-0.832s4.953-2.979 6.559-5.383c1.606-2.403 2.463-5.229 2.463-8.119-0.004-3.875-1.545-7.589-4.285-10.329s-6.455-4.281-10.329-4.285zM12.602 22.4c-0.001 0.065-0.027 0.127-0.073 0.172s-0.108 0.071-0.173 0.071h-2.816c-0.064 0-0.126-0.026-0.172-0.071s-0.071-0.107-0.071-0.172v-9.462c-0-0.032 0.006-0.064 0.018-0.094s0.030-0.057 0.052-0.080c0.023-0.023 0.050-0.041 0.079-0.054s0.062-0.019 0.094-0.019h2.816c0.032 0 0.064 0.006 0.094 0.019s0.057 0.031 0.080 0.053c0.023 0.023 0.041 0.050 0.053 0.080s0.019 0.062 0.019 0.094v9.462zM10.848 11.427c-0.35 0-0.692-0.104-0.983-0.298s-0.518-0.471-0.652-0.794c-0.134-0.323-0.169-0.679-0.101-1.022s0.237-0.659 0.484-0.906c0.247-0.247 0.563-0.416 0.906-0.484s0.699-0.033 1.022 0.101c0.323 0.134 0.6 0.361 0.794 0.652s0.298 0.633 0.298 0.983c0 0.232-0.045 0.463-0.134 0.678s-0.219 0.41-0.383 0.575-0.36 0.295-0.575 0.384c-0.215 0.089-0.445 0.134-0.678 0.134zM24.518 22.4c-0.001 0.065-0.027 0.127-0.073 0.172s-0.108 0.071-0.173 0.071h-2.816c-0.032 0-0.064-0.006-0.093-0.019s-0.056-0.030-0.079-0.053c-0.023-0.023-0.041-0.049-0.053-0.079s-0.019-0.061-0.019-0.093v-5.085c0-1.338-0.477-2.24-1.674-2.24-0.373 0.002-0.736 0.119-1.040 0.336s-0.533 0.522-0.656 0.874c-0.084 0.26-0.121 0.533-0.109 0.806v5.309c0 0.065-0.026 0.128-0.072 0.174s-0.109 0.072-0.174 0.072h-2.816c-0.032 0-0.064-0.006-0.094-0.019s-0.057-0.031-0.079-0.054c-0.023-0.023-0.040-0.050-0.052-0.080s-0.018-0.062-0.018-0.094c0-1.35 0.035-7.907 0-9.45-0-0.032 0.006-0.064 0.018-0.094s0.030-0.057 0.052-0.080c0.023-0.023 0.050-0.041 0.079-0.054s0.062-0.019 0.094-0.019h2.81c0.032-0 0.065 0.006 0.095 0.018s0.057 0.030 0.080 0.053c0.023 0.023 0.041 0.050 0.053 0.080s0.018 0.062 0.018 0.095v1.162c0.299-0.52 0.735-0.947 1.26-1.237s1.12-0.429 1.719-0.405c2.173 0 3.805 1.421 3.805 4.48l0.006 5.45zM17.734 14.144v-0.035l-0.022 0.035h0.022zM17.712 14.144h0.022v-0.035l-0.022 0.035zM17.712 14.144h0.022v-0.035l-0.022 0.035zM17.712 14.144h0.022v-0.035l-0.022 0.035zM17.712 14.144h0.022v-0.035l-0.022 0.035zM17.712 14.144h0.022v-0.035l-0.022 0.035zM17.712 14.144h0.022v-0.035l-0.022 0.035zM17.712 14.144h0.022v-0.035l-0.022 0.035zM17.712 14.144h0.022v-0.035l-0.022 0.035zM17.712 14.144h0.022v-0.035l-0.022 0.035zM17.712 14.144h0.022v-0.035l-0.022 0.035zM17.712 14.144h0.022v-0.035l-0.022 0.035zM17.712 14.144h0.022v-0.035l-0.022 0.035zM17.712 14.144h0.022v-0.035l-0.022 0.035zM17.712 14.144h0.022v-0.035l-0.022 0.035z"></path>
</symbol>
<symbol id="icon-share" viewBox="0 0 32 32">
<path d="M22.981 18.054c-0.62 0.001-1.235 0.129-1.806 0.379s-1.088 0.615-1.519 1.074l-6.076-3.275c0.059-0.301 0.089-0.608 0.090-0.916-0.008-0.181-0.025-0.362-0.053-0.541l5.81-2.563c0.705 0.853 1.679 1.424 2.752 1.612s2.175-0.020 3.114-0.585c0.939-0.566 1.654-1.454 2.020-2.509s0.359-2.208-0.019-3.258-1.104-1.929-2.050-2.484c-0.946-0.554-2.051-0.748-3.121-0.547s-2.038 0.784-2.732 1.646c-0.695 0.862-1.072 1.949-1.065 3.069 0.007 0.183 0.025 0.366 0.053 0.548l-5.808 2.556c-0.602-0.742-1.409-1.278-2.314-1.538s-1.864-0.232-2.753 0.081-1.664 0.896-2.224 1.672c-0.56 0.776-0.879 1.708-0.913 2.674s0.216 1.92 0.719 2.737 1.234 1.457 2.098 1.836c0.864 0.38 1.819 0.481 2.74 0.291s1.764-0.664 2.418-1.357l6.073 3.275c-0.058 0.302-0.088 0.608-0.088 0.916 0 0.948 0.273 1.874 0.785 2.662s1.238 1.402 2.089 1.765c0.851 0.363 1.787 0.457 2.69 0.273s1.732-0.641 2.383-1.311c0.651-0.67 1.094-1.524 1.274-2.453s0.087-1.893-0.265-2.768c-0.352-0.875-0.949-1.624-1.715-2.15s-1.666-0.808-2.586-0.808v0zM22.981 7.103c0.395 0 0.78 0.12 1.108 0.346s0.584 0.546 0.735 0.922 0.191 0.788 0.114 1.186c-0.077 0.398-0.267 0.764-0.546 1.051s-0.634 0.483-1.021 0.562-0.788 0.039-1.153-0.117c-0.365-0.155-0.676-0.419-0.895-0.756s-0.336-0.735-0.336-1.141c0-0.545 0.21-1.067 0.584-1.452s0.882-0.601 1.411-0.601v0zM9.016 17.37c-0.395 0-0.78-0.12-1.108-0.346s-0.584-0.546-0.735-0.922c-0.151-0.375-0.191-0.788-0.114-1.186s0.267-0.764 0.546-1.051c0.279-0.287 0.634-0.483 1.021-0.562s0.788-0.039 1.153 0.117c0.365 0.155 0.676 0.419 0.895 0.756s0.336 0.735 0.336 1.141c-0.002 0.323-0.079 0.641-0.225 0.927 0 0.008-0.012 0.012-0.016 0.019v0.022c-0.17 0.327-0.423 0.601-0.732 0.792s-0.662 0.293-1.023 0.294v0zM22.981 24.899c-0.529 0-1.037-0.216-1.411-0.601s-0.584-0.907-0.584-1.452c0.002-0.319 0.077-0.633 0.219-0.916 0-0.011 0.015-0.019 0.021-0.030v-0.022c0.166-0.321 0.413-0.59 0.713-0.781s0.645-0.296 0.998-0.304c0.353-0.009 0.702 0.079 1.011 0.255s0.568 0.433 0.749 0.745c0.181 0.312 0.279 0.668 0.282 1.032s-0.086 0.721-0.261 1.037c-0.175 0.316-0.428 0.579-0.733 0.761s-0.653 0.278-1.006 0.277z"></path>
</symbol>
<symbol id="icon-telegram" viewBox="0 0 32 32">
<path d="M15.993 2.667c-2.637 0-5.215 0.782-7.408 2.247s-3.902 3.547-4.911 5.984c-1.009 2.436-1.273 5.117-0.759 7.704s1.784 4.962 3.649 6.827c1.865 1.865 4.241 3.135 6.827 3.649s5.267 0.25 7.704-0.759c2.436-1.009 4.519-2.718 5.984-4.911s2.247-4.771 2.247-7.408c0-1.751-0.345-3.485-1.015-5.103s-1.652-3.088-2.89-4.326c-1.238-1.238-2.708-2.22-4.326-2.89s-3.352-1.015-5.103-1.015zM20.232 22.87c-0.050 0.124-0.126 0.237-0.223 0.329s-0.212 0.164-0.339 0.208c-0.127 0.044-0.261 0.061-0.395 0.049s-0.263-0.052-0.38-0.118l-3.62-2.812-2.323 2.143c-0.054 0.040-0.117 0.065-0.183 0.075s-0.134 0.001-0.197-0.023l0.445-3.985 0.014 0.011 0.009-0.079c0 0 6.513-5.93 6.779-6.183 0.269-0.252 0.18-0.307 0.18-0.307 0.015-0.307-0.482 0-0.482 0l-8.63 5.552-3.594-1.224c0 0-0.552-0.198-0.604-0.633-0.055-0.432 0.622-0.667 0.622-0.667l14.289-5.677c0 0 1.175-0.523 1.175 0.343l-2.545 12.995z"></path>
</symbol>
<symbol id="icon-arrow" viewBox="0 0 28 32">
<path d="M0.039 13.793l13.273-13.764 13.21 13.823-0.798 0.761-11.865-12.412-0.066 28.728-1.103-0.003 0.066-28.728-11.923 12.361-0.794-0.767z"></path>
</symbol>
<symbol id="arrow" viewBox="0 0 54 30">
<path d="M53.4142 16.4142C54.1953 15.6332 54.1953 14.3668 53.4142 13.5858L40.6863 0.857864C39.9052 0.0768156 38.6389 0.0768156 37.8579 0.857864C37.0768 1.63891 37.0768 2.90524 37.8579 3.68629L49.1716 15L37.8579 26.3137C37.0768 27.0948 37.0768 28.3611 37.8579 29.1421C38.6389 29.9232 39.9052 29.9232 40.6863 29.1421L53.4142 16.4142ZM0 17H52V13H0V17Z"/>
</symbol>
</svg>